<svg width="503" height="502" viewBox="0 0 503 502" version="1.1" xmlns="http://www.w3.org/2000/svg" xmlns:xlink="http://www.w3.org/1999/xlink" xmlns:figma="http://www.figma.com/figma/ns">
<title>Group</title>
<desc>Created using Figma</desc>
<g id="Canvas" transform="translate(3009 6817)" figma:type="canvas">
<g id="Group" style="mix-blend-mode:normal;" figma:type="frame">
<g id="Ellipse 2" style="mix-blend-mode:normal;" figma:type="ellipse">
<use xlink:href="#path0_fill" transform="translate(-3008.5 -6817)" fill="#314B5B" style="mix-blend-mode:normal;"/>
</g>
<g id="aja" style="mix-blend-mode:normal;" figma:type="text">
<use xlink:href="#path1_fill" transform="translate(-2905.5 -6704)" fill="#FFFFFF" style="mix-blend-mode:normal;"/>
</g>
</g>
</g>
<defs>
<path id="path0_fill" d="M 502 251C 502 389.623 389.623 502 251 502C 112.377 502 0 389.623 0 251C 0 112.377 112.377 0 251 0C 389.623 0 502 112.377 502 251Z"/>
<path id="path1_fill" d="M 7.375 169.4C 7.375 146.333 27.8417 134.8 68.775 134.8L 68.775 127.8C 68.775 116.2 67.1083 108.867 63.775 105.8C 60.575 102.6 55.5083 101 48.575 101L 25.175 121C 21.975 119 19.2417 116.2 16.975 112.6C 14.8417 108.867 13.7083 104.933 13.575 100.8C 19.175 97.7333 25.3083 95.4 31.975 93.8C 38.6417 92.0667 45.2417 91.2 51.775 91.2C 79.1083 91.2 92.775 102.667 92.775 125.6L 92.775 181.2L 108.375 181.2L 108.375 187.8C 105.308 190.733 101.908 193 98.175 194.6C 94.4417 196.333 90.775 197.2 87.175 197.2C 79.3083 197.2 73.5083 193.8 69.775 187C 60.8417 193.8 50.775 197.2 39.575 197.2C 30.775 197.2 23.175 194.867 16.775 190.2C 10.5083 185.533 7.375 178.6 7.375 169.4ZM 32.575 168.6C 32.575 173.533 34.175 177.2 37.375 179.6C 40.7083 182 44.9083 183.2 49.975 183.2C 57.3083 183.2 63.575 180.933 68.775 176.4L 68.775 145C 56.775 145 47.7083 147.2 41.575 151.6C 35.575 155.867 32.575 161.533 32.575 168.6ZM 115.727 246.2C 131.86 234.867 139.927 217.533 139.927 194.2L 139.927 110.4L 122.927 110.4L 122.927 101.8L 154.927 94.2L 163.727 94.2L 163.727 194.2C 163.727 201.267 162.527 208 160.127 214.4C 157.86 220.8 154.727 226.667 150.727 232C 146.86 237.333 142.393 242 137.327 246C 132.393 250 127.327 253.133 122.127 255.4L 115.727 246.2ZM 167.127 63.8C 167.127 67.9333 165.66 71.4667 162.727 74.4C 159.927 77.2 156.46 78.6 152.327 78.6C 148.193 78.6 144.66 77.2 141.727 74.4C 138.927 71.4667 137.527 67.9333 137.527 63.8C 137.527 59.6667 138.927 56.2 141.727 53.4C 144.66 50.4667 148.193 49 152.327 49C 156.46 49 159.927 50.4 162.727 53.2C 165.66 56 167.127 59.5333 167.127 63.8ZM 194.273 169.4C 194.273 146.333 214.74 134.8 255.673 134.8L 255.673 127.8C 255.673 116.2 254.007 108.867 250.673 105.8C 247.473 102.6 242.407 101 235.473 101L 212.073 121C 208.873 119 206.14 116.2 203.873 112.6C 201.74 108.867 200.607 104.933 200.473 100.8C 206.073 97.7333 212.207 95.4 218.873 93.8C 225.54 92.0667 232.14 91.2 238.673 91.2C 266.007 91.2 279.673 102.667 279.673 125.6L 279.673 181.2L 295.273 181.2L 295.273 187.8C 292.207 190.733 288.807 193 285.073 194.6C 281.34 196.333 277.673 197.2 274.073 197.2C 266.207 197.2 260.407 193.8 256.673 187C 247.74 193.8 237.673 197.2 226.473 197.2C 217.673 197.2 210.073 194.867 203.673 190.2C 197.407 185.533 194.273 178.6 194.273 169.4ZM 219.473 168.6C 219.473 173.533 221.073 177.2 224.273 179.6C 227.607 182 231.807 183.2 236.873 183.2C 244.207 183.2 250.473 180.933 255.673 176.4L 255.673 145C 243.673 145 234.607 147.2 228.473 151.6C 222.473 155.867 219.473 161.533 219.473 168.6Z"/>
</defs>
</svg>
