<svg width="234" height="175" viewBox="0 0 234 175" version="1.1" xmlns="http://www.w3.org/2000/svg" xmlns:xlink="http://www.w3.org/1999/xlink" xmlns:figma="http://www.figma.com/figma/ns">
<title>aja</title>
<desc>Created using Figma</desc>
<g id="Canvas" transform="translate(2527 5653)" figma:type="canvas">
<g id="aja" style="mix-blend-mode:normal;" figma:type="vector">
<use xlink:href="#path0_fill" transform="translate(-2526.82 -5652.4)" fill="#121223" style="mix-blend-mode:normal;"/>
<use xlink:href="#path1_fill" transform="translate(-2526.82 -5652.4)" fill="#121223" style="mix-blend-mode:normal;"/>
<use xlink:href="#path2_fill" transform="translate(-2526.82 -5652.4)" fill="#121223" style="mix-blend-mode:normal;"/>
</g>
</g>
<defs>
<path id="path0_fill" d="M 0 111.4C 0 105.4 1.53333 100.333 4.6 96.2C 7.66667 92.0667 11.7333 88.6667 16.8 86C 21.8667 83.2 27.6 81.0667 34 79.6C 40.5333 78.1333 47.2 77.1333 54 76.6L 54 72.2C 54 69 53.8 65.8 53.4 62.6C 53 59.4 52.0667 56.4667 50.6 53.8C 49 51.1333 46.8 49.4667 44 48.8C 41.3333 48 38.6667 47.6 36 47.6C 32.4 47.6 29.6 47.7333 27.6 48C 25.6 48.1333 24.0667 48.4667 23 49C 22.0667 49.5333 21.4667 50.3333 21.2 51.4C 21.0667 52.3333 21 53.6667 21 55.4C 21 57.2667 21.2 58.4667 21.6 59C 22.1333 59.4 22.4 59.9333 22.4 60.6C 22.4 61.6667 21.9333 62.8 21 64C 20.2 65.0667 19.1333 66.0667 17.8 67C 16.6 67.8 15.2 68.4667 13.6 69C 12.1333 69.5333 10.7333 69.8 9.4 69.8C 6.33333 69.8 4.46667 68.9333 3.8 67.2C 3.13333 65.3333 2.8 63.7333 2.8 62.4C 2.8 59.2 4.33333 56.0667 7.4 53C 10.6 49.9333 14.4 47.1333 18.8 44.6C 23.3333 42.0667 28 40.0667 32.8 38.6C 37.6 37 41.6667 36.2 45 36.2C 50.6 36.2 55.1333 37.0667 58.6 38.8C 62.2 40.5333 64.9333 42.8 66.8 45.6C 68.6667 48.4 69.9333 51.6 70.6 55.2C 71.2667 58.6667 71.6 62.2 71.6 65.8L 71.6 123C 73.0667 123 74.6 122.733 76.2 122.2C 77.8 121.533 79.4 121.2 81 121.2C 82.4667 121.2 83.4 121.467 83.8 122C 84.3333 122.533 84.6 123.267 84.6 124.2C 84.6 124.733 84.0667 125.6 83 126.8C 81.9333 127.867 80.4 129 78.4 130.2C 76.5333 131.4 74.3333 132.467 71.8 133.4C 69.2667 134.333 66.4667 134.8 63.4 134.8C 60.8667 134.8 58.6667 134.267 56.8 133.2C 54.9333 132.133 54 130.333 54 127.8L 54 120.2C 50.5333 124.467 46.7333 128 42.6 130.8C 38.4667 133.467 33.4667 134.8 27.6 134.8C 22.6667 134.8 18.4 134.067 14.8 132.6C 11.3333 131.133 8.46667 129.267 6.2 127C 4.06667 124.6 2.46667 122.067 1.4 119.4C 0.466666 116.6 0 113.933 0 111.4ZM 18.8 104.8C 18.8 110.133 20.1333 114.6 22.8 118.2C 25.4667 121.8 30.4 123.6 37.6 123.6C 40.2667 123.6 43.0667 122.6 46 120.6C 49.0667 118.6 51.7333 116 54 112.8L 54 85.8C 50.2667 85.9333 46.3333 86.3333 42.2 87C 38.0667 87.5333 34.2667 88.4667 30.8 89.8C 27.3333 91.1333 24.4667 93 22.2 95.4C 19.9333 97.8 18.8 100.933 18.8 104.8Z"/>
<path id="path1_fill" d="M 108.117 55.6C 105.451 55.0667 102.717 54.2 99.9172 53C 97.1172 51.8 95.7172 50.7333 95.7172 49.8C 95.7172 48.4667 96.5172 47.1333 98.1172 45.8C 99.7172 44.3333 101.651 43.0667 103.917 42C 106.317 40.9333 108.851 40.0667 111.517 39.4C 114.184 38.6 116.584 38.2 118.717 38.2C 120.051 38.2 121.451 38.3333 122.917 38.6C 124.384 38.8667 125.251 39.4 125.517 40.2L 125.517 128.4C 125.517 133.867 125.117 138.667 124.317 142.8C 123.517 146.933 122.184 150.667 120.317 154C 118.584 157.467 116.184 160.6 113.117 163.4C 110.184 166.2 106.517 168.867 102.117 171.4C 100.117 172.6 98.5838 173.4 97.5172 173.8C 96.4505 174.2 95.4505 174.4 94.5172 174.4C 93.7172 174.4 92.9172 173.867 92.1172 172.8C 91.3172 171.867 90.9172 171.067 90.9172 170.4C 90.9172 168.667 92.9172 166.333 96.9172 163.4C 101.851 159.667 104.917 155 106.117 149.4C 107.451 143.933 108.117 137.6 108.117 130.4L 108.117 55.6ZM 118.317 20.8C 115.384 20.8 112.917 20.4667 110.917 19.8C 108.917 19 107.384 18.1333 106.317 17.2C 105.251 16.2667 104.451 15.3333 103.917 14.4C 103.517 13.4667 103.317 12.8 103.317 12.4C 103.317 11.3333 103.651 10.0667 104.317 8.6C 104.984 7.13333 105.851 5.79999 106.917 4.6C 107.984 3.26667 109.184 2.2 110.517 1.39999C 111.851 0.466669 113.184 0 114.517 0C 120.384 0 124.451 1.06666 126.717 3.2C 128.984 5.33333 130.117 7.33333 130.117 9.2C 130.117 10.4 129.717 11.6667 128.917 13C 128.251 14.3333 127.317 15.6 126.117 16.8C 125.051 17.8667 123.784 18.8 122.317 19.6C 120.984 20.4 119.651 20.8 118.317 20.8Z"/>
<path id="path2_fill" d="M 149.117 111.4C 149.117 105.4 150.651 100.333 153.717 96.2C 156.784 92.0667 160.851 88.6667 165.917 86C 170.984 83.2 176.717 81.0667 183.117 79.6C 189.651 78.1333 196.317 77.1333 203.117 76.6L 203.117 72.2C 203.117 69 202.917 65.8 202.517 62.6C 202.117 59.4 201.184 56.4667 199.717 53.8C 198.117 51.1333 195.917 49.4667 193.117 48.8C 190.451 48 187.784 47.6 185.117 47.6C 181.517 47.6 178.717 47.7333 176.717 48C 174.717 48.1333 173.184 48.4667 172.117 49C 171.184 49.5333 170.584 50.3333 170.317 51.4C 170.184 52.3333 170.117 53.6667 170.117 55.4C 170.117 57.2667 170.317 58.4667 170.717 59C 171.251 59.4 171.517 59.9333 171.517 60.6C 171.517 61.6667 171.051 62.8 170.117 64C 169.317 65.0667 168.251 66.0667 166.917 67C 165.717 67.8 164.317 68.4667 162.717 69C 161.251 69.5333 159.851 69.8 158.517 69.8C 155.451 69.8 153.584 68.9333 152.917 67.2C 152.251 65.3333 151.917 63.7333 151.917 62.4C 151.917 59.2 153.451 56.0667 156.517 53C 159.717 49.9333 163.517 47.1333 167.917 44.6C 172.451 42.0667 177.117 40.0667 181.917 38.6C 186.717 37 190.784 36.2 194.117 36.2C 199.717 36.2 204.251 37.0667 207.717 38.8C 211.317 40.5333 214.051 42.8 215.917 45.6C 217.784 48.4 219.051 51.6 219.717 55.2C 220.384 58.6667 220.717 62.2 220.717 65.8L 220.717 123C 222.184 123 223.717 122.733 225.317 122.2C 226.917 121.533 228.517 121.2 230.117 121.2C 231.584 121.2 232.517 121.467 232.917 122C 233.451 122.533 233.717 123.267 233.717 124.2C 233.717 124.733 233.184 125.6 232.117 126.8C 231.051 127.867 229.517 129 227.517 130.2C 225.651 131.4 223.451 132.467 220.917 133.4C 218.384 134.333 215.584 134.8 212.517 134.8C 209.984 134.8 207.784 134.267 205.917 133.2C 204.051 132.133 203.117 130.333 203.117 127.8L 203.117 120.2C 199.651 124.467 195.851 128 191.717 130.8C 187.584 133.467 182.584 134.8 176.717 134.8C 171.784 134.8 167.517 134.067 163.917 132.6C 160.451 131.133 157.584 129.267 155.317 127C 153.184 124.6 151.584 122.067 150.517 119.4C 149.584 116.6 149.117 113.933 149.117 111.4ZM 167.917 104.8C 167.917 110.133 169.251 114.6 171.917 118.2C 174.584 121.8 179.517 123.6 186.717 123.6C 189.384 123.6 192.184 122.6 195.117 120.6C 198.184 118.6 200.851 116 203.117 112.8L 203.117 85.8C 199.384 85.9333 195.451 86.3333 191.317 87C 187.184 87.5333 183.384 88.4667 179.917 89.8C 176.451 91.1333 173.584 93 171.317 95.4C 169.051 97.8 167.917 100.933 167.917 104.8Z"/>
</defs>
</svg>
